<svg width="66" height="21" viewBox="0 0 66 21" fill="none" xmlns="http://www.w3.org/2000/svg">
<path d="M58.5202 8.22715H64.9261C67.8743 8.22715 64.0418 20.8421 61.9303 20.8421H47.4316C46.8154 20.8421 46.3158 20.351 46.3158 19.7452V8.87835C46.3158 8.47692 46.5388 8.10752 46.8973 7.91534C49.2845 6.63528 52.0859 5.5859 53.4711 3.13449L54.9542 0.510319C55.1321 0.195345 55.4699 0 55.8364 0C59.5184 0 58.4261 5.36081 57.9257 7.49246C57.8375 7.86833 58.1278 8.22715 58.5202 8.22715Z" fill="#403F4C"/>
<path fill-rule="evenodd" clip-rule="evenodd" d="M0 19.5949C2.54956 16.3403 4.81364 14.4935 6.79223 14.0545C8.77083 13.6155 10.6546 13.5492 12.4437 13.8555V19.6842L20.8421 10.1733L12.4437 1.1579V6.69781C9.13577 6.72516 6.3236 7.96621 4.00715 10.4211C1.69066 12.8759 0.354993 15.9338 0 19.5949Z" fill="#403F4C"/>
</svg>
